# xmcd
#
# Track frame offsets:
# 150
# 18894
# 35377
# 53891
# 72367
# 89550
# 107890
# 122761
# 139666
# 159246
# 176046
# 190610
# 206540
# 223528
#
# Disc length: 3196 seconds
#
#
# Revision: 1
# Processed by: cddbd v1.5.2PL0 Copyright (c) Steve Scherf et al.
# Submitted via: FreeRIP 2.951 
#
DISCID=c10c7a0e
DTITLE=Leonardo - Leonardo - Canta Grandes Sucessos
DYEAR=2004
DGENRE=Popular
TTITLE0=Faixa 01 - Uma Lágrima
TTITLE1=Faixa 02 - Fantasias
TTITLE2=Faixa 03 - Pouco A Pouco
TTITLE3=Faixa 04 - Vem Me Ajudar - Mar De Rosas
TTITLE4=Faixa 05 - A Desconhecida
TTITLE5=Faixa 06 - Pedaço De Mau Caminho - Mon Amour, Meu Bem, Ma Femme
TTITLE6=Faixa 07 - Meu Mel
TTITLE7=Faixa 08 - Ninguém Vai Tirar Você De Mim
TTITLE8=Faixa 09 - Seresteiro Da Noite - Meu Ex-Amor
TTITLE9=Faixa 10 - Perto Dos Olhos Longe Do Coração
TTITLE10=Faixa 11 - Só Mais Uma Vez
TTITLE11=Faixa 12 - Ainda Queima A Esperança
TTITLE12=Faixa 13 - Última Canção
TTITLE13=Faixa 14 - Solidão De Amigos
EXTD=pedro.rp@oi.com.br\nJan. 2007
EXTT0=
EXTT1=
EXTT2=
EXTT3=
EXTT4=
EXTT5=
EXTT6=
EXTT7=
EXTT8=
EXTT9=
EXTT10=
EXTT11=
EXTT12=
EXTT13=
PLAYORDER=
